<?xml version="1.0" encoding="UTF-8" standalone="no"?><svg xmlns="http://www.w3.org/2000/svg" xmlns:xlink="http://www.w3.org/1999/xlink" contentScriptType="application/ecmascript" contentStyleType="text/css" height="1887px" preserveAspectRatio="none" style="width:917px;height:1887px;" version="1.1" viewBox="0 0 917 1887" width="917px" zoomAndPan="magnify"><defs><filter height="300%" id="f184tyghl58rpt" width="300%" x="-1" y="-1"><feGaussianBlur result="blurOut" stdDeviation="2.0"/><feColorMatrix in="blurOut" result="blurOut2" type="matrix" values="0 0 0 0 0 0 0 0 0 0 0 0 0 0 0 0 0 0 .4 0"/><feOffset dx="4.0" dy="4.0" in="blurOut2" result="blurOut3"/><feBlend in="SourceGraphic" in2="blurOut3" mode="normal"/></filter></defs><g><ellipse cx="458" cy="20" fill="#000000" filter="url(#f184tyghl58rpt)" rx="10" ry="10" style="stroke: none; stroke-width: 1.0;"/><rect fill="#FFFFFF" filter="url(#f184tyghl58rpt)" height="352.6694" style="stroke: #000000; stroke-width: 2.0;" width="896" x="10" y="40.5762"/><path d="M76,41.5762 L76,52.6963 L66,62.6963 L10,62.6963 " fill="none" style="stroke: #000000; stroke-width: 2.0;"/><text fill="#000000" font-family="sans-serif" font-size="14" lengthAdjust="spacingAndGlyphs" textLength="56" x="13" y="57.6201">生成丝车</text><rect fill="#000000" filter="url(#f184tyghl58rpt)" height="6" rx="2.5" ry="2.5" style="stroke: #000000; stroke-width: 1.0;" width="876" x="20" y="79.6963"/><path d="M146,105.6963 L146,151.0823 L126,155.0823 L146,159.0823 L146,204.4683 A0,0 0 0 0 146,204.4683 L290,204.4683 A0,0 0 0 0 290,204.4683 L290,115.6963 L280,105.6963 L146,105.6963 A0,0 0 0 0 146,105.6963 " fill="#FBFB77" filter="url(#f184tyghl58rpt)" style="stroke: #A80036; stroke-width: 1.0;"/><path d="M280,105.6963 L280,115.6963 L290,115.6963 L280,105.6963 " fill="#FBFB77" style="stroke: #A80036; stroke-width: 1.0;"/><text fill="#000000" font-family="sans-serif" font-size="13" lengthAdjust="spacingAndGlyphs" textLength="91" x="152" y="125.5942">丝锭摆放顺序：</text><text fill="#000000" font-family="sans-serif" font-size="13" lengthAdjust="spacingAndGlyphs" textLength="64" x="160" y="143.3486">A面 -&gt; B面</text><text fill="#000000" font-family="sans-serif" font-size="13" lengthAdjust="spacingAndGlyphs" textLength="50" x="160" y="161.103">下  -&gt; 上</text><text fill="#000000" font-family="sans-serif" font-size="13" lengthAdjust="spacingAndGlyphs" textLength="115" x="160" y="178.8574">最下一行，左  -&gt; 右</text><text fill="#000000" font-family="sans-serif" font-size="13" lengthAdjust="spacingAndGlyphs" textLength="115" x="160" y="196.6118">间隔一行，右  -&gt; 左</text><rect fill="#FEFECE" filter="url(#f184tyghl58rpt)" height="36.3887" rx="12.5" ry="12.5" style="stroke: #A80036; stroke-width: 1.5;" width="68" x="58" y="136.8879"/><text fill="#000000" font-family="sans-serif" font-size="12" lengthAdjust="spacingAndGlyphs" textLength="48" x="68" y="160.6399">人工落筒</text><rect fill="#FEFECE" filter="url(#f184tyghl58rpt)" height="36.3887" rx="12.5" ry="12.5" style="stroke: #A80036; stroke-width: 1.5;" width="104" x="40" y="239.4683"/><text fill="#000000" font-family="sans-serif" font-size="12" lengthAdjust="spacingAndGlyphs" textLength="84" x="50" y="263.2202">扫丝车，扫机台</text><rect fill="#FEFECE" filter="url(#f184tyghl58rpt)" height="36.3887" rx="12.5" ry="12.5" style="stroke: #A80036; stroke-width: 1.5;" width="116" x="34" y="310.8569"/><text fill="#000000" font-family="sans-serif" font-size="12" lengthAdjust="spacingAndGlyphs" textLength="96" x="44" y="334.6089">贴标签，验证标签</text><rect fill="#FEFECE" filter="url(#f184tyghl58rpt)" height="36.3887" rx="12.5" ry="12.5" style="stroke: #A80036; stroke-width: 1.5;" width="68" x="342" y="136.8879"/><text fill="#000000" font-family="sans-serif" font-size="12" lengthAdjust="spacingAndGlyphs" textLength="48" x="352" y="160.6399">自动落筒</text><rect fill="#FEFECE" filter="url(#f184tyghl58rpt)" height="36.3887" rx="12.5" ry="12.5" style="stroke: #A80036; stroke-width: 1.5;" width="104" x="324" y="208.2766"/><text fill="#000000" font-family="sans-serif" font-size="12" lengthAdjust="spacingAndGlyphs" textLength="84" x="334" y="232.0286">扫丝车，扫机台</text><path d="M454,283.9824 L454,293.8596 L434,297.8596 L454,301.8596 L454,311.7368 A0,0 0 0 0 454,311.7368 L631,311.7368 A0,0 0 0 0 631,311.7368 L631,293.9824 L621,283.9824 L454,283.9824 A0,0 0 0 0 454,283.9824 " fill="#FBFB77" filter="url(#f184tyghl58rpt)" style="stroke: #A80036; stroke-width: 1.0;"/><path d="M621,283.9824 L621,293.9824 L631,293.9824 L621,283.9824 " fill="#FBFB77" style="stroke: #A80036; stroke-width: 1.0;"/><text fill="#000000" font-family="sans-serif" font-size="13" lengthAdjust="spacingAndGlyphs" textLength="156" x="460" y="303.8804">参考原自动落筒机器人顺序</text><rect fill="#FEFECE" filter="url(#f184tyghl58rpt)" height="36.3887" rx="12.5" ry="12.5" style="stroke: #A80036; stroke-width: 1.5;" width="116" x="318" y="279.6653"/><text fill="#000000" font-family="sans-serif" font-size="12" lengthAdjust="spacingAndGlyphs" textLength="96" x="328" y="303.4172">贴标签，验证标签</text><rect fill="#FEFECE" filter="url(#f184tyghl58rpt)" height="36.3887" rx="12.5" ry="12.5" style="stroke: #A80036; stroke-width: 1.5;" width="44" x="689" y="150.2678"/><text fill="#000000" font-family="sans-serif" font-size="12" lengthAdjust="spacingAndGlyphs" textLength="24" x="699" y="174.0198">拼车</text><path d="M783,221.6565 L783,258.1653 L763,262.1653 L783,266.1653 L783,302.6741 A0,0 0 0 0 783,302.6741 L882,302.6741 A0,0 0 0 0 882,302.6741 L882,231.6565 L872,221.6565 L783,221.6565 A0,0 0 0 0 783,221.6565 " fill="#FBFB77" filter="url(#f184tyghl58rpt)" style="stroke: #A80036; stroke-width: 1.0;"/><path d="M872,221.6565 L872,231.6565 L882,231.6565 L872,221.6565 " fill="#FBFB77" style="stroke: #A80036; stroke-width: 1.0;"/><text fill="#000000" font-family="sans-serif" font-size="13" lengthAdjust="spacingAndGlyphs" textLength="78" x="789" y="241.5544">扫丝锭顺序：</text><text fill="#000000" font-family="sans-serif" font-size="13" lengthAdjust="spacingAndGlyphs" textLength="64" x="797" y="259.3088">A面 -&gt; B面</text><text fill="#000000" font-family="sans-serif" font-size="13" lengthAdjust="spacingAndGlyphs" textLength="50" x="797" y="277.0632">左  -&gt; 右</text><text fill="#000000" font-family="sans-serif" font-size="13" lengthAdjust="spacingAndGlyphs" textLength="50" x="797" y="294.8176">上  -&gt; 下</text><rect fill="#FEFECE" filter="url(#f184tyghl58rpt)" height="36.3887" rx="12.5" ry="12.5" style="stroke: #A80036; stroke-width: 1.5;" width="104" x="659" y="243.9709"/><text fill="#000000" font-family="sans-serif" font-size="12" lengthAdjust="spacingAndGlyphs" textLength="84" x="669" y="267.7229">扫丝车，扫丝锭</text><rect fill="#000000" filter="url(#f184tyghl58rpt)" height="6" rx="2.5" ry="2.5" style="stroke: #000000; stroke-width: 1.0;" width="876" x="20" y="367.2456"/><rect fill="#FFFFFF" filter="url(#f184tyghl58rpt)" height="166.8975" style="stroke: #000000; stroke-width: 2.0;" width="136" x="390" y="403.8218"/><path d="M442,404.8218 L442,415.9419 L432,425.9419 L390,425.9419 " fill="none" style="stroke: #000000; stroke-width: 2.0;"/><text fill="#000000" font-family="sans-serif" font-size="14" lengthAdjust="spacingAndGlyphs" textLength="42" x="393" y="420.8657">落丝工</text><rect fill="#FEFECE" filter="url(#f184tyghl58rpt)" height="36.3887" rx="12.5" ry="12.5" style="stroke: #A80036; stroke-width: 1.5;" width="68" x="424" y="442.9419"/><text fill="#000000" font-family="sans-serif" font-size="12" lengthAdjust="spacingAndGlyphs" textLength="48" x="434" y="466.6938">预设等级</text><rect fill="#FEFECE" filter="url(#f184tyghl58rpt)" height="36.3887" rx="12.5" ry="12.5" style="stroke: #A80036; stroke-width: 1.5;" width="116" x="400" y="514.3306"/><text fill="#000000" font-family="sans-serif" font-size="12" lengthAdjust="spacingAndGlyphs" textLength="96" x="410" y="538.0825">填写异常，或备注</text><rect fill="#FFFFFF" filter="url(#f184tyghl58rpt)" height="95.5088" style="stroke: #000000; stroke-width: 2.0;" width="136" x="390" y="581.2954"/><path d="M484,582.2954 L484,593.4155 L474,603.4155 L390,603.4155 " fill="none" style="stroke: #000000; stroke-width: 2.0;"/><text fill="#000000" font-family="sans-serif" font-size="14" lengthAdjust="spacingAndGlyphs" textLength="84" x="393" y="598.3394">其他工种……</text><rect fill="#FEFECE" filter="url(#f184tyghl58rpt)" height="36.3887" rx="12.5" ry="12.5" style="stroke: #A80036; stroke-width: 1.5;" width="116" x="400" y="620.4155"/><text fill="#000000" font-family="sans-serif" font-size="12" lengthAdjust="spacingAndGlyphs" textLength="96" x="410" y="644.1675">填写异常，或备注</text><rect fill="#FFFFFF" filter="url(#f184tyghl58rpt)" height="95.5088" style="stroke: #000000; stroke-width: 2.0;" width="309" x="402" y="687.3804"/><path d="M482,688.3804 L482,699.5005 L472,709.5005 L402,709.5005 " fill="none" style="stroke: #000000; stroke-width: 2.0;"/><text fill="#000000" font-family="sans-serif" font-size="14" lengthAdjust="spacingAndGlyphs" textLength="70" x="405" y="704.4243">织袜、染判</text><path d="M524,730.8176 L524,740.6948 L504,744.6948 L524,748.6948 L524,758.572 A0,0 0 0 0 524,758.572 L701,758.572 A0,0 0 0 0 701,758.572 L701,740.8176 L691,730.8176 L524,730.8176 A0,0 0 0 0 524,730.8176 " fill="#FBFB77" filter="url(#f184tyghl58rpt)" style="stroke: #A80036; stroke-width: 1.0;"/><path d="M691,730.8176 L691,740.8176 L701,740.8176 L691,730.8176 " fill="#FBFB77" style="stroke: #A80036; stroke-width: 1.0;"/><text fill="#000000" font-family="sans-serif" font-size="13" lengthAdjust="spacingAndGlyphs" textLength="156" x="530" y="750.7156">参考原自动落筒机器人顺序</text><rect fill="#FEFECE" filter="url(#f184tyghl58rpt)" height="36.3887" rx="12.5" ry="12.5" style="stroke: #A80036; stroke-width: 1.5;" width="92" x="412" y="726.5005"/><text fill="#000000" font-family="sans-serif" font-size="12" lengthAdjust="spacingAndGlyphs" textLength="72" x="422" y="750.2524">提交织袜信息</text><rect fill="#FFFFFF" filter="url(#f184tyghl58rpt)" height="930.2524" style="stroke: #000000; stroke-width: 2.0;" width="688" x="114" y="793.4653"/><path d="M152,794.4653 L152,805.5854 L142,815.5854 L114,815.5854 " fill="none" style="stroke: #000000; stroke-width: 2.0;"/><text fill="#000000" font-family="sans-serif" font-size="14" lengthAdjust="spacingAndGlyphs" textLength="28" x="117" y="810.5093">打包</text><rect fill="#000000" filter="url(#f184tyghl58rpt)" height="6" rx="2.5" ry="2.5" style="stroke: #000000; stroke-width: 1.0;" width="668" x="124" y="832.5854"/><rect fill="#FEFECE" filter="url(#f184tyghl58rpt)" height="36.3887" rx="12.5" ry="12.5" style="stroke: #A80036; stroke-width: 1.5;" width="68" x="311" y="858.5854"/><text fill="#000000" font-family="sans-serif" font-size="12" lengthAdjust="spacingAndGlyphs" textLength="48" x="321" y="882.3374">自动打包</text><rect fill="#FEFECE" filter="url(#f184tyghl58rpt)" height="36.3887" rx="12.5" ry="12.5" style="stroke: #A80036; stroke-width: 1.5;" width="224" x="233" y="929.9741"/><text fill="#000000" font-family="sans-serif" font-size="12" lengthAdjust="spacingAndGlyphs" textLength="204" x="243" y="953.7261">推入自动线，获取丝车信息（每锭丝）</text><rect fill="#FEFECE" filter="url(#f184tyghl58rpt)" height="36.3887" rx="12.5" ry="12.5" style="stroke: #A80036; stroke-width: 1.5;" width="92" x="299" y="1073.3628"/><text fill="#000000" font-family="sans-serif" font-size="12" lengthAdjust="spacingAndGlyphs" textLength="72" x="309" y="1097.1147">获取丝锭信息</text><polygon fill="#FEFECE" filter="url(#f184tyghl58rpt)" points="306.5,1144.7515,383.5,1144.7515,395.5,1156.7515,383.5,1168.7515,306.5,1168.7515,294.5,1156.7515,306.5,1144.7515" style="stroke: #A80036; stroke-width: 1.5;"/><text fill="#000000" font-family="sans-serif" font-size="11" lengthAdjust="spacingAndGlyphs" textLength="77" x="306.5" y="1161.8459">丝锭染判结果？</text><text fill="#000000" font-family="sans-serif" font-size="11" lengthAdjust="spacingAndGlyphs" textLength="22" x="272.5" y="1154.3345">未出</text><rect fill="#FEFECE" filter="url(#f184tyghl58rpt)" height="36.3887" rx="12.5" ry="12.5" style="stroke: #A80036; stroke-width: 1.5;" width="176" x="148" y="1178.7515"/><text fill="#000000" font-family="sans-serif" font-size="12" lengthAdjust="spacingAndGlyphs" textLength="156" x="158" y="1202.5034">大屏显示无法推入自动线原因</text><ellipse cx="236" cy="1260.1401" fill="none" filter="url(#f184tyghl58rpt)" rx="10" ry="10" style="stroke: #000000; stroke-width: 1.0;"/><ellipse cx="236.5" cy="1260.6401" fill="#000000" filter="url(#f184tyghl58rpt)" rx="6" ry="6" style="stroke: none; stroke-width: 1.0;"/><rect fill="#FEFECE" filter="url(#f184tyghl58rpt)" height="36.3887" rx="12.5" ry="12.5" style="stroke: #A80036; stroke-width: 1.5;" width="200" x="354" y="1228.2629"/><text fill="#000000" font-family="sans-serif" font-size="12" lengthAdjust="spacingAndGlyphs" textLength="180" x="364" y="1252.0149">前道降等，标示自动线剔除该丝锭</text><polygon fill="#FEFECE" filter="url(#f184tyghl58rpt)" points="415.5,1178.7515,492.5,1178.7515,504.5,1190.7515,492.5,1202.7515,415.5,1202.7515,403.5,1190.7515,415.5,1178.7515" style="stroke: #A80036; stroke-width: 1.5;"/><text fill="#000000" font-family="sans-serif" font-size="11" lengthAdjust="spacingAndGlyphs" textLength="11" x="458" y="1215.3574">有</text><text fill="#000000" font-family="sans-serif" font-size="11" lengthAdjust="spacingAndGlyphs" textLength="77" x="415.5" y="1195.8459">丝锭是否异常？</text><polygon fill="#FEFECE" filter="url(#f184tyghl58rpt)" points="454,1290.1631,466,1302.1631,454,1314.1631,442,1302.1631,454,1290.1631" style="stroke: #A80036; stroke-width: 1.5;"/><rect fill="#FEFECE" filter="url(#f184tyghl58rpt)" height="36.3887" rx="12.5" ry="12.5" style="stroke: #A80036; stroke-width: 1.5;" width="92" x="299" y="1355.1631"/><text fill="#000000" font-family="sans-serif" font-size="12" lengthAdjust="spacingAndGlyphs" textLength="72" x="309" y="1378.915">生成丝锭信息</text><polygon fill="#FEFECE" filter="url(#f184tyghl58rpt)" points="345,1001.3628,357,1013.3628,345,1025.3628,333,1013.3628,345,1001.3628" style="stroke: #A80036; stroke-width: 1.5;"/><polygon fill="#FEFECE" filter="url(#f184tyghl58rpt)" points="309,1439.5518,381,1439.5518,393,1451.5518,381,1463.5518,309,1463.5518,297,1451.5518,309,1439.5518" style="stroke: #A80036; stroke-width: 1.5;"/><text fill="#000000" font-family="sans-serif" font-size="11" lengthAdjust="spacingAndGlyphs" textLength="72" x="309" y="1456.6462">还有更多丝锭?</text><rect fill="#FEFECE" filter="url(#f184tyghl58rpt)" height="36.3887" rx="12.5" ry="12.5" style="stroke: #A80036; stroke-width: 1.5;" width="104" x="293" y="1498.5518"/><text fill="#000000" font-family="sans-serif" font-size="12" lengthAdjust="spacingAndGlyphs" textLength="84" x="303" y="1522.3037">自动线解绑接口</text><rect fill="#FEFECE" filter="url(#f184tyghl58rpt)" height="36.3887" rx="12.5" ry="12.5" style="stroke: #A80036; stroke-width: 1.5;" width="104" x="293" y="1569.9404"/><text fill="#000000" font-family="sans-serif" font-size="12" lengthAdjust="spacingAndGlyphs" textLength="84" x="303" y="1593.6924">自动线打包接口</text><rect fill="#FEFECE" filter="url(#f184tyghl58rpt)" height="36.3887" rx="12.5" ry="12.5" style="stroke: #A80036; stroke-width: 1.5;" width="116" x="287" y="1641.3291"/><text fill="#000000" font-family="sans-serif" font-size="12" lengthAdjust="spacingAndGlyphs" textLength="96" x="297" y="1665.0811">接收唛头信息接口</text><rect fill="#FEFECE" filter="url(#f184tyghl58rpt)" height="36.3887" rx="12.5" ry="12.5" style="stroke: #A80036; stroke-width: 1.5;" width="68" x="674" y="1178.5686"/><text fill="#000000" font-family="sans-serif" font-size="12" lengthAdjust="spacingAndGlyphs" textLength="48" x="684" y="1202.3206">人工打包</text><rect fill="#FEFECE" filter="url(#f184tyghl58rpt)" height="36.3887" rx="12.5" ry="12.5" style="stroke: #A80036; stroke-width: 1.5;" width="140" x="638" y="1249.9573"/><text fill="#000000" font-family="sans-serif" font-size="12" lengthAdjust="spacingAndGlyphs" textLength="120" x="648" y="1273.7092">扫丝车，输入打包颗数</text><rect fill="#FEFECE" filter="url(#f184tyghl58rpt)" height="36.3887" rx="12.5" ry="12.5" style="stroke: #A80036; stroke-width: 1.5;" width="68" x="674" y="1321.3459"/><text fill="#000000" font-family="sans-serif" font-size="12" lengthAdjust="spacingAndGlyphs" textLength="48" x="684" y="1345.0979">生成唛头</text><rect fill="#000000" filter="url(#f184tyghl58rpt)" height="6" rx="2.5" ry="2.5" style="stroke: #000000; stroke-width: 1.0;" width="668" x="124" y="1697.7178"/><rect fill="#FEFECE" filter="url(#f184tyghl58rpt)" height="36.3887" rx="12.5" ry="12.5" style="stroke: #A80036; stroke-width: 1.5;" width="200" x="358" y="1743.7178"/><text fill="#000000" font-family="sans-serif" font-size="12" lengthAdjust="spacingAndGlyphs" textLength="180" x="368" y="1767.4697">更新唛头，如：入库日期、班次等</text><rect fill="#FEFECE" filter="url(#f184tyghl58rpt)" height="36.3887" rx="12.5" ry="12.5" style="stroke: #A80036; stroke-width: 1.5;" width="92" x="412" y="1800.1064"/><text fill="#000000" font-family="sans-serif" font-size="12" lengthAdjust="spacingAndGlyphs" textLength="72" x="422" y="1823.8584">保存唛头信息</text><ellipse cx="458" cy="1866.4951" fill="none" filter="url(#f184tyghl58rpt)" rx="10" ry="10" style="stroke: #000000; stroke-width: 1.0;"/><ellipse cx="458.5" cy="1866.9951" fill="#000000" filter="url(#f184tyghl58rpt)" rx="6" ry="6" style="stroke: none; stroke-width: 1.0;"/><line style="stroke: #A80036; stroke-width: 1.5;" x1="92" x2="92" y1="173.2766" y2="239.4683"/><polygon fill="#A80036" points="88,229.4683,92,239.4683,96,229.4683,92,233.4683" style="stroke: #A80036; stroke-width: 1.0;"/><line style="stroke: #A80036; stroke-width: 1.5;" x1="92" x2="92" y1="275.8569" y2="310.8569"/><polygon fill="#A80036" points="88,300.8569,92,310.8569,96,300.8569,92,304.8569" style="stroke: #A80036; stroke-width: 1.0;"/><line style="stroke: #A80036; stroke-width: 1.5;" x1="376" x2="376" y1="173.2766" y2="208.2766"/><polygon fill="#A80036" points="372,198.2766,376,208.2766,380,198.2766,376,202.2766" style="stroke: #A80036; stroke-width: 1.0;"/><line style="stroke: #A80036; stroke-width: 1.5;" x1="376" x2="376" y1="244.6653" y2="279.6653"/><polygon fill="#A80036" points="372,269.6653,376,279.6653,380,269.6653,376,273.6653" style="stroke: #A80036; stroke-width: 1.0;"/><line style="stroke: #A80036; stroke-width: 1.5;" x1="711" x2="711" y1="186.6565" y2="243.9709"/><polygon fill="#A80036" points="707,233.9709,711,243.9709,715,233.9709,711,237.9709" style="stroke: #A80036; stroke-width: 1.0;"/><line style="stroke: #A80036; stroke-width: 1.5;" x1="92" x2="92" y1="85.6963" y2="136.8879"/><polygon fill="#A80036" points="88,126.8879,92,136.8879,96,126.8879,92,130.8879" style="stroke: #A80036; stroke-width: 1.0;"/><line style="stroke: #A80036; stroke-width: 1.5;" x1="376" x2="376" y1="85.6963" y2="136.8879"/><polygon fill="#A80036" points="372,126.8879,376,136.8879,380,126.8879,376,130.8879" style="stroke: #A80036; stroke-width: 1.0;"/><line style="stroke: #A80036; stroke-width: 1.5;" x1="711" x2="711" y1="85.6963" y2="150.2678"/><polygon fill="#A80036" points="707,140.2678,711,150.2678,715,140.2678,711,144.2678" style="stroke: #A80036; stroke-width: 1.0;"/><line style="stroke: #A80036; stroke-width: 1.5;" x1="92" x2="92" y1="347.2456" y2="367.2456"/><polygon fill="#A80036" points="88,357.2456,92,367.2456,96,357.2456,92,361.2456" style="stroke: #A80036; stroke-width: 1.0;"/><line style="stroke: #A80036; stroke-width: 1.5;" x1="376" x2="376" y1="316.054" y2="367.2456"/><polygon fill="#A80036" points="372,357.2456,376,367.2456,380,357.2456,376,361.2456" style="stroke: #A80036; stroke-width: 1.0;"/><line style="stroke: #A80036; stroke-width: 1.5;" x1="711" x2="711" y1="280.3596" y2="367.2456"/><polygon fill="#A80036" points="707,357.2456,711,367.2456,715,357.2456,711,361.2456" style="stroke: #A80036; stroke-width: 1.0;"/><line style="stroke: #A80036; stroke-width: 1.5;" x1="458" x2="458" y1="30" y2="79.6963"/><polygon fill="#A80036" points="454,69.6963,458,79.6963,462,69.6963,458,73.6963" style="stroke: #A80036; stroke-width: 1.0;"/><line style="stroke: #A80036; stroke-width: 1.5;" x1="458" x2="458" y1="479.3306" y2="514.3306"/><polygon fill="#A80036" points="454,504.3306,458,514.3306,462,504.3306,458,508.3306" style="stroke: #A80036; stroke-width: 1.0;"/><line style="stroke: #A80036; stroke-width: 1.5;" x1="458" x2="458" y1="373.2456" y2="442.9419"/><polygon fill="#A80036" points="454,432.9419,458,442.9419,462,432.9419,458,436.9419" style="stroke: #A80036; stroke-width: 1.0;"/><line style="stroke: #A80036; stroke-width: 1.5;" x1="458" x2="458" y1="550.7192" y2="620.4155"/><polygon fill="#A80036" points="454,610.4155,458,620.4155,462,610.4155,458,614.4155" style="stroke: #A80036; stroke-width: 1.0;"/><line style="stroke: #A80036; stroke-width: 1.5;" x1="458" x2="458" y1="656.8042" y2="726.5005"/><polygon fill="#A80036" points="454,716.5005,458,726.5005,462,716.5005,458,720.5005" style="stroke: #A80036; stroke-width: 1.0;"/><line style="stroke: #A80036; stroke-width: 1.5;" x1="345" x2="345" y1="894.9741" y2="929.9741"/><polygon fill="#A80036" points="341,919.9741,345,929.9741,349,919.9741,345,923.9741" style="stroke: #A80036; stroke-width: 1.0;"/><line style="stroke: #A80036; stroke-width: 1.5;" x1="236" x2="236" y1="1215.1401" y2="1250.1401"/><polygon fill="#A80036" points="232,1240.1401,236,1250.1401,240,1240.1401,236,1244.1401" style="stroke: #A80036; stroke-width: 1.0;"/><line style="stroke: #A80036; stroke-width: 1.5;" x1="454" x2="454" y1="1202.7515" y2="1228.2629"/><polygon fill="#A80036" points="450,1218.2629,454,1228.2629,458,1218.2629,454,1222.2629" style="stroke: #A80036; stroke-width: 1.0;"/><line style="stroke: #A80036; stroke-width: 1.5;" x1="504.5" x2="564" y1="1190.7515" y2="1190.7515"/><polygon fill="#A80036" points="560,1236.4573,564,1246.4573,568,1236.4573,564,1240.4573" style="stroke: #A80036; stroke-width: 1.5;"/><line style="stroke: #A80036; stroke-width: 1.5;" x1="564" x2="564" y1="1190.7515" y2="1302.1631"/><line style="stroke: #A80036; stroke-width: 1.5;" x1="564" x2="466" y1="1302.1631" y2="1302.1631"/><polygon fill="#A80036" points="476,1298.1631,466,1302.1631,476,1306.1631,472,1302.1631" style="stroke: #A80036; stroke-width: 1.0;"/><line style="stroke: #A80036; stroke-width: 1.5;" x1="454" x2="454" y1="1264.6516" y2="1290.1631"/><polygon fill="#A80036" points="450,1280.1631,454,1290.1631,458,1280.1631,454,1284.1631" style="stroke: #A80036; stroke-width: 1.0;"/><line style="stroke: #A80036; stroke-width: 1.5;" x1="294.5" x2="236" y1="1156.7515" y2="1156.7515"/><line style="stroke: #A80036; stroke-width: 1.5;" x1="236" x2="236" y1="1156.7515" y2="1178.7515"/><polygon fill="#A80036" points="232,1168.7515,236,1178.7515,240,1168.7515,236,1172.7515" style="stroke: #A80036; stroke-width: 1.0;"/><line style="stroke: #A80036; stroke-width: 1.5;" x1="395.5" x2="454" y1="1156.7515" y2="1156.7515"/><line style="stroke: #A80036; stroke-width: 1.5;" x1="454" x2="454" y1="1156.7515" y2="1178.7515"/><polygon fill="#A80036" points="450,1168.7515,454,1178.7515,458,1168.7515,454,1172.7515" style="stroke: #A80036; stroke-width: 1.0;"/><line style="stroke: #A80036; stroke-width: 1.5;" x1="454" x2="454" y1="1314.1631" y2="1320.1631"/><line style="stroke: #A80036; stroke-width: 1.5;" x1="454" x2="345" y1="1320.1631" y2="1320.1631"/><line style="stroke: #A80036; stroke-width: 1.5;" x1="345" x2="345" y1="1320.1631" y2="1355.1631"/><polygon fill="#A80036" points="341,1345.1631,345,1355.1631,349,1345.1631,345,1349.1631" style="stroke: #A80036; stroke-width: 1.0;"/><line style="stroke: #A80036; stroke-width: 1.5;" x1="345" x2="345" y1="1109.7515" y2="1144.7515"/><polygon fill="#A80036" points="341,1134.7515,345,1144.7515,349,1134.7515,345,1138.7515" style="stroke: #A80036; stroke-width: 1.0;"/><line style="stroke: #A80036; stroke-width: 1.5;" x1="345" x2="345" y1="1025.3628" y2="1073.3628"/><polygon fill="#A80036" points="341,1063.3628,345,1073.3628,349,1063.3628,345,1067.3628" style="stroke: #A80036; stroke-width: 1.0;"/><line style="stroke: #A80036; stroke-width: 1.5;" x1="393" x2="598" y1="1451.5518" y2="1451.5518"/><polygon fill="#A80036" points="594,1242.4573,598,1232.4573,602,1242.4573,598,1238.4573" style="stroke: #A80036; stroke-width: 1.5;"/><line style="stroke: #A80036; stroke-width: 1.5;" x1="598" x2="598" y1="1013.3628" y2="1451.5518"/><line style="stroke: #A80036; stroke-width: 1.5;" x1="598" x2="357" y1="1013.3628" y2="1013.3628"/><polygon fill="#A80036" points="367,1009.3628,357,1013.3628,367,1017.3628,363,1013.3628" style="stroke: #A80036; stroke-width: 1.0;"/><line style="stroke: #A80036; stroke-width: 1.5;" x1="345" x2="345" y1="1391.5518" y2="1439.5518"/><polygon fill="#A80036" points="341,1429.5518,345,1439.5518,349,1429.5518,345,1433.5518" style="stroke: #A80036; stroke-width: 1.0;"/><line style="stroke: #A80036; stroke-width: 1.5;" x1="345" x2="345" y1="966.3628" y2="1001.3628"/><polygon fill="#A80036" points="341,991.3628,345,1001.3628,349,991.3628,345,995.3628" style="stroke: #A80036; stroke-width: 1.0;"/><line style="stroke: #A80036; stroke-width: 1.5;" x1="345" x2="345" y1="1463.5518" y2="1498.5518"/><polygon fill="#A80036" points="341,1488.5518,345,1498.5518,349,1488.5518,345,1492.5518" style="stroke: #A80036; stroke-width: 1.0;"/><line style="stroke: #A80036; stroke-width: 1.5;" x1="345" x2="345" y1="1534.9404" y2="1569.9404"/><polygon fill="#A80036" points="341,1559.9404,345,1569.9404,349,1559.9404,345,1563.9404" style="stroke: #A80036; stroke-width: 1.0;"/><line style="stroke: #A80036; stroke-width: 1.5;" x1="345" x2="345" y1="1606.3291" y2="1641.3291"/><polygon fill="#A80036" points="341,1631.3291,345,1641.3291,349,1631.3291,345,1635.3291" style="stroke: #A80036; stroke-width: 1.0;"/><line style="stroke: #A80036; stroke-width: 1.5;" x1="708" x2="708" y1="1214.9573" y2="1249.9573"/><polygon fill="#A80036" points="704,1239.9573,708,1249.9573,712,1239.9573,708,1243.9573" style="stroke: #A80036; stroke-width: 1.0;"/><line style="stroke: #A80036; stroke-width: 1.5;" x1="708" x2="708" y1="1286.3459" y2="1321.3459"/><polygon fill="#A80036" points="704,1311.3459,708,1321.3459,712,1311.3459,708,1315.3459" style="stroke: #A80036; stroke-width: 1.0;"/><line style="stroke: #A80036; stroke-width: 1.5;" x1="345" x2="345" y1="838.5854" y2="858.5854"/><polygon fill="#A80036" points="341,848.5854,345,858.5854,349,848.5854,345,852.5854" style="stroke: #A80036; stroke-width: 1.0;"/><line style="stroke: #A80036; stroke-width: 1.5;" x1="708" x2="708" y1="838.5854" y2="1178.5686"/><polygon fill="#A80036" points="704,1168.5686,708,1178.5686,712,1168.5686,708,1172.5686" style="stroke: #A80036; stroke-width: 1.0;"/><line style="stroke: #A80036; stroke-width: 1.5;" x1="345" x2="345" y1="1677.7178" y2="1697.7178"/><polygon fill="#A80036" points="341,1687.7178,345,1697.7178,349,1687.7178,345,1691.7178" style="stroke: #A80036; stroke-width: 1.0;"/><line style="stroke: #A80036; stroke-width: 1.5;" x1="708" x2="708" y1="1357.7346" y2="1697.7178"/><polygon fill="#A80036" points="704,1687.7178,708,1697.7178,712,1687.7178,708,1691.7178" style="stroke: #A80036; stroke-width: 1.0;"/><line style="stroke: #A80036; stroke-width: 1.5;" x1="458" x2="458" y1="762.8892" y2="832.5854"/><polygon fill="#A80036" points="454,822.5854,458,832.5854,462,822.5854,458,826.5854" style="stroke: #A80036; stroke-width: 1.0;"/><line style="stroke: #A80036; stroke-width: 1.5;" x1="458" x2="458" y1="1703.7178" y2="1743.7178"/><polygon fill="#A80036" points="454,1733.7178,458,1743.7178,462,1733.7178,458,1737.7178" style="stroke: #A80036; stroke-width: 1.0;"/><line style="stroke: #A80036; stroke-width: 1.5;" x1="458" x2="458" y1="1780.1064" y2="1800.1064"/><polygon fill="#A80036" points="454,1790.1064,458,1800.1064,462,1790.1064,458,1794.1064" style="stroke: #A80036; stroke-width: 1.0;"/><line style="stroke: #A80036; stroke-width: 1.5;" x1="458" x2="458" y1="1836.4951" y2="1856.4951"/><polygon fill="#A80036" points="454,1846.4951,458,1856.4951,462,1846.4951,458,1850.4951" style="stroke: #A80036; stroke-width: 1.0;"/><!--
@startuml
start
partition 生成丝车 {
  fork
    :人工落筒;
    note right
      丝锭摆放顺序：
        A面 -> B面
        下  -> 上
        最下一行，左  -> 右
        间隔一行，右  -> 左
    end note
    :扫丝车，扫机台;
    :贴标签，验证标签;

  fork again
    :自动落筒;
    :扫丝车，扫机台;
    :贴标签，验证标签;
    note right
      参考原自动落筒机器人顺序
    end note

  fork again
    :拼车;
    :扫丝车，扫丝锭;
    note right
     扫丝锭顺序：
       A面 -> B面
       左  -> 右
       上  -> 下
    end note

  endfork
}
partition 落丝工 {
  :预设等级;
  :填写异常，或备注;
}
partition 其他工种…… {
  :填写异常，或备注;
}

partition 织袜、染判 {
  :提交织袜信息;
  note right
    参考原自动落筒机器人顺序
  end note
}
partition 打包 {
  fork
    :自动打包;
    :推入自动线，获取丝车信息（每锭丝）;
    repeat
      :获取丝锭信息;
        if (丝锭染判结果？) then (未出)
          :大屏显示无法推入自动线原因;
          stop
        else
          if (丝锭是否异常？) then (有)
            :前道降等，标示自动线剔除该丝锭;
          endif
        endif
    :生成丝锭信息;
    repeat while (还有更多丝锭?)
	:自动线解绑接口;
	:自动线打包接口;
	:接收唛头信息接口;

  fork again
    :人工打包;
    :扫丝车，输入打包颗数;
    :生成唛头;

  endfork
}

:更新唛头，如：入库日期、班次等;
:保存唛头信息;

stop
@enduml

PlantUML version 1.2018.01(Mon Jan 29 02:08:22 CST 2018)
(GPL source distribution)
Java Runtime: OpenJDK Runtime Environment
JVM: OpenJDK 64-Bit Server VM
Java Version: 1.8.0_152-release-1024-b6
Operating System: Windows 10
OS Version: 10.0
Default Encoding: GBK
Language: zh
Country: CN
--></g></svg>