<?xml version="1.0" encoding="UTF-8" standalone="no"?><svg xmlns="http://www.w3.org/2000/svg" xmlns:xlink="http://www.w3.org/1999/xlink" contentScriptType="application/ecmascript" contentStyleType="text/css" height="647px" preserveAspectRatio="none" style="width:422px;height:647px;" version="1.1" viewBox="0 0 422 647" width="422px" zoomAndPan="magnify"><defs><filter height="300%" id="fcgvho3f2eysd" width="300%" x="-1" y="-1"><feGaussianBlur result="blurOut" stdDeviation="2.0"/><feColorMatrix in="blurOut" result="blurOut2" type="matrix" values="0 0 0 0 0 0 0 0 0 0 0 0 0 0 0 0 0 0 .4 0"/><feOffset dx="4.0" dy="4.0" in="blurOut2" result="blurOut3"/><feBlend in="SourceGraphic" in2="blurOut3" mode="normal"/></filter></defs><g><line style="stroke: #A80036; stroke-width: 1.0; stroke-dasharray: 5.0,5.0;" x1="50" x2="50" y1="54.1201" y2="586.9272"/><line style="stroke: #A80036; stroke-width: 1.0; stroke-dasharray: 5.0,5.0;" x1="92" x2="92" y1="54.1201" y2="586.9272"/><line style="stroke: #A80036; stroke-width: 1.0; stroke-dasharray: 5.0,5.0;" x1="134" x2="134" y1="54.1201" y2="586.9272"/><line style="stroke: #A80036; stroke-width: 1.0; stroke-dasharray: 5.0,5.0;" x1="176" x2="176" y1="54.1201" y2="586.9272"/><line style="stroke: #A80036; stroke-width: 1.0; stroke-dasharray: 5.0,5.0;" x1="218" x2="218" y1="54.1201" y2="586.9272"/><line style="stroke: #A80036; stroke-width: 1.0; stroke-dasharray: 5.0,5.0;" x1="260" x2="260" y1="54.1201" y2="586.9272"/><line style="stroke: #A80036; stroke-width: 1.0; stroke-dasharray: 5.0,5.0;" x1="302" x2="302" y1="54.1201" y2="586.9272"/><line style="stroke: #A80036; stroke-width: 1.0; stroke-dasharray: 5.0,5.0;" x1="344" x2="344" y1="54.1201" y2="586.9272"/><line style="stroke: #A80036; stroke-width: 1.0; stroke-dasharray: 5.0,5.0;" x1="386" x2="386" y1="54.1201" y2="586.9272"/><text fill="#000000" font-family="sans-serif" font-size="14" lengthAdjust="spacingAndGlyphs" textLength="17" x="38.5" y="51.0439">A1</text><ellipse cx="50" cy="19" fill="#FEFECE" filter="url(#fcgvho3f2eysd)" rx="12" ry="12" style="stroke: #A80036; stroke-width: 2.0;"/><line style="stroke: #A80036; stroke-width: 2.0;" x1="38" x2="62" y1="33" y2="33"/><text fill="#000000" font-family="sans-serif" font-size="14" lengthAdjust="spacingAndGlyphs" textLength="17" x="38.5" y="601.9712">A1</text><ellipse cx="50" cy="621.0474" fill="#FEFECE" filter="url(#fcgvho3f2eysd)" rx="12" ry="12" style="stroke: #A80036; stroke-width: 2.0;"/><line style="stroke: #A80036; stroke-width: 2.0;" x1="38" x2="62" y1="635.0474" y2="635.0474"/><text fill="#000000" font-family="sans-serif" font-size="14" lengthAdjust="spacingAndGlyphs" textLength="17" x="80.5" y="51.0439">A2</text><ellipse cx="92" cy="19" fill="#FEFECE" filter="url(#fcgvho3f2eysd)" rx="12" ry="12" style="stroke: #A80036; stroke-width: 2.0;"/><line style="stroke: #A80036; stroke-width: 2.0;" x1="80" x2="104" y1="33" y2="33"/><text fill="#000000" font-family="sans-serif" font-size="14" lengthAdjust="spacingAndGlyphs" textLength="17" x="80.5" y="601.9712">A2</text><ellipse cx="92" cy="621.0474" fill="#FEFECE" filter="url(#fcgvho3f2eysd)" rx="12" ry="12" style="stroke: #A80036; stroke-width: 2.0;"/><line style="stroke: #A80036; stroke-width: 2.0;" x1="80" x2="104" y1="635.0474" y2="635.0474"/><text fill="#000000" font-family="sans-serif" font-size="14" lengthAdjust="spacingAndGlyphs" textLength="17" x="122.5" y="51.0439">A3</text><ellipse cx="134" cy="19" fill="#FEFECE" filter="url(#fcgvho3f2eysd)" rx="12" ry="12" style="stroke: #A80036; stroke-width: 2.0;"/><line style="stroke: #A80036; stroke-width: 2.0;" x1="122" x2="146" y1="33" y2="33"/><text fill="#000000" font-family="sans-serif" font-size="14" lengthAdjust="spacingAndGlyphs" textLength="17" x="122.5" y="601.9712">A3</text><ellipse cx="134" cy="621.0474" fill="#FEFECE" filter="url(#fcgvho3f2eysd)" rx="12" ry="12" style="stroke: #A80036; stroke-width: 2.0;"/><line style="stroke: #A80036; stroke-width: 2.0;" x1="122" x2="146" y1="635.0474" y2="635.0474"/><text fill="#000000" font-family="sans-serif" font-size="14" lengthAdjust="spacingAndGlyphs" textLength="17" x="164.5" y="51.0439">B1</text><ellipse cx="176" cy="19" fill="#FEFECE" filter="url(#fcgvho3f2eysd)" rx="12" ry="12" style="stroke: #A80036; stroke-width: 2.0;"/><line style="stroke: #A80036; stroke-width: 2.0;" x1="164" x2="188" y1="33" y2="33"/><text fill="#000000" font-family="sans-serif" font-size="14" lengthAdjust="spacingAndGlyphs" textLength="17" x="164.5" y="601.9712">B1</text><ellipse cx="176" cy="621.0474" fill="#FEFECE" filter="url(#fcgvho3f2eysd)" rx="12" ry="12" style="stroke: #A80036; stroke-width: 2.0;"/><line style="stroke: #A80036; stroke-width: 2.0;" x1="164" x2="188" y1="635.0474" y2="635.0474"/><text fill="#000000" font-family="sans-serif" font-size="14" lengthAdjust="spacingAndGlyphs" textLength="17" x="206.5" y="51.0439">B2</text><ellipse cx="218" cy="19" fill="#FEFECE" filter="url(#fcgvho3f2eysd)" rx="12" ry="12" style="stroke: #A80036; stroke-width: 2.0;"/><line style="stroke: #A80036; stroke-width: 2.0;" x1="206" x2="230" y1="33" y2="33"/><text fill="#000000" font-family="sans-serif" font-size="14" lengthAdjust="spacingAndGlyphs" textLength="17" x="206.5" y="601.9712">B2</text><ellipse cx="218" cy="621.0474" fill="#FEFECE" filter="url(#fcgvho3f2eysd)" rx="12" ry="12" style="stroke: #A80036; stroke-width: 2.0;"/><line style="stroke: #A80036; stroke-width: 2.0;" x1="206" x2="230" y1="635.0474" y2="635.0474"/><text fill="#000000" font-family="sans-serif" font-size="14" lengthAdjust="spacingAndGlyphs" textLength="17" x="248.5" y="51.0439">B3</text><ellipse cx="260" cy="19" fill="#FEFECE" filter="url(#fcgvho3f2eysd)" rx="12" ry="12" style="stroke: #A80036; stroke-width: 2.0;"/><line style="stroke: #A80036; stroke-width: 2.0;" x1="248" x2="272" y1="33" y2="33"/><text fill="#000000" font-family="sans-serif" font-size="14" lengthAdjust="spacingAndGlyphs" textLength="17" x="248.5" y="601.9712">B3</text><ellipse cx="260" cy="621.0474" fill="#FEFECE" filter="url(#fcgvho3f2eysd)" rx="12" ry="12" style="stroke: #A80036; stroke-width: 2.0;"/><line style="stroke: #A80036; stroke-width: 2.0;" x1="248" x2="272" y1="635.0474" y2="635.0474"/><text fill="#000000" font-family="sans-serif" font-size="14" lengthAdjust="spacingAndGlyphs" textLength="18" x="290" y="51.0439">C1</text><ellipse cx="302" cy="19" fill="#FEFECE" filter="url(#fcgvho3f2eysd)" rx="12" ry="12" style="stroke: #A80036; stroke-width: 2.0;"/><line style="stroke: #A80036; stroke-width: 2.0;" x1="290" x2="314" y1="33" y2="33"/><text fill="#000000" font-family="sans-serif" font-size="14" lengthAdjust="spacingAndGlyphs" textLength="18" x="290" y="601.9712">C1</text><ellipse cx="302" cy="621.0474" fill="#FEFECE" filter="url(#fcgvho3f2eysd)" rx="12" ry="12" style="stroke: #A80036; stroke-width: 2.0;"/><line style="stroke: #A80036; stroke-width: 2.0;" x1="290" x2="314" y1="635.0474" y2="635.0474"/><text fill="#000000" font-family="sans-serif" font-size="14" lengthAdjust="spacingAndGlyphs" textLength="18" x="332" y="51.0439">C2</text><ellipse cx="344" cy="19" fill="#FEFECE" filter="url(#fcgvho3f2eysd)" rx="12" ry="12" style="stroke: #A80036; stroke-width: 2.0;"/><line style="stroke: #A80036; stroke-width: 2.0;" x1="332" x2="356" y1="33" y2="33"/><text fill="#000000" font-family="sans-serif" font-size="14" lengthAdjust="spacingAndGlyphs" textLength="18" x="332" y="601.9712">C2</text><ellipse cx="344" cy="621.0474" fill="#FEFECE" filter="url(#fcgvho3f2eysd)" rx="12" ry="12" style="stroke: #A80036; stroke-width: 2.0;"/><line style="stroke: #A80036; stroke-width: 2.0;" x1="332" x2="356" y1="635.0474" y2="635.0474"/><text fill="#000000" font-family="sans-serif" font-size="14" lengthAdjust="spacingAndGlyphs" textLength="18" x="374" y="51.0439">C3</text><ellipse cx="386" cy="19" fill="#FEFECE" filter="url(#fcgvho3f2eysd)" rx="12" ry="12" style="stroke: #A80036; stroke-width: 2.0;"/><line style="stroke: #A80036; stroke-width: 2.0;" x1="374" x2="398" y1="33" y2="33"/><text fill="#000000" font-family="sans-serif" font-size="14" lengthAdjust="spacingAndGlyphs" textLength="18" x="374" y="601.9712">C3</text><ellipse cx="386" cy="621.0474" fill="#FEFECE" filter="url(#fcgvho3f2eysd)" rx="12" ry="12" style="stroke: #A80036; stroke-width: 2.0;"/><line style="stroke: #A80036; stroke-width: 2.0;" x1="374" x2="398" y1="635.0474" y2="635.0474"/><path d="M8,69.1201 L8,96.1201 L88,96.1201 L88,79.1201 L78,69.1201 L8,69.1201 " fill="#FBFB77" filter="url(#fcgvho3f2eysd)" style="stroke: #A80036; stroke-width: 1.0;"/><path d="M78,69.1201 L78,79.1201 L88,79.1201 L78,69.1201 " fill="#FBFB77" style="stroke: #A80036; stroke-width: 1.0;"/><text fill="#000000" font-family="sans-serif" font-size="13" lengthAdjust="spacingAndGlyphs" textLength="59" x="14" y="89.0181">8:00(抽样)</text><path d="M67,110.8745 L67,137.8745 L113,137.8745 L113,120.8745 L103,110.8745 L67,110.8745 " fill="#FBFB77" filter="url(#fcgvho3f2eysd)" style="stroke: #A80036; stroke-width: 1.0;"/><path d="M103,110.8745 L103,120.8745 L113,120.8745 L103,110.8745 " fill="#FBFB77" style="stroke: #A80036; stroke-width: 1.0;"/><text fill="#000000" font-family="sans-serif" font-size="13" lengthAdjust="spacingAndGlyphs" textLength="25" x="73" y="130.7725">9:00</text><path d="M105,152.6289 L105,179.6289 L158,179.6289 L158,162.6289 L148,152.6289 L105,152.6289 " fill="#FBFB77" filter="url(#fcgvho3f2eysd)" style="stroke: #A80036; stroke-width: 1.0;"/><path d="M148,152.6289 L148,162.6289 L158,162.6289 L148,152.6289 " fill="#FBFB77" style="stroke: #A80036; stroke-width: 1.0;"/><text fill="#000000" font-family="sans-serif" font-size="13" lengthAdjust="spacingAndGlyphs" textLength="32" x="111" y="172.5269">10:00</text><path d="M130,194.3833 L130,221.3833 L217,221.3833 L217,204.3833 L207,194.3833 L130,194.3833 " fill="#FBFB77" filter="url(#fcgvho3f2eysd)" style="stroke: #A80036; stroke-width: 1.0;"/><path d="M207,194.3833 L207,204.3833 L217,204.3833 L207,194.3833 " fill="#FBFB77" style="stroke: #A80036; stroke-width: 1.0;"/><text fill="#000000" font-family="sans-serif" font-size="13" lengthAdjust="spacingAndGlyphs" textLength="66" x="136" y="214.2813">11:00(抽样)</text><path d="M189,236.1377 L189,263.1377 L242,263.1377 L242,246.1377 L232,236.1377 L189,236.1377 " fill="#FBFB77" filter="url(#fcgvho3f2eysd)" style="stroke: #A80036; stroke-width: 1.0;"/><path d="M232,236.1377 L232,246.1377 L242,246.1377 L232,236.1377 " fill="#FBFB77" style="stroke: #A80036; stroke-width: 1.0;"/><text fill="#000000" font-family="sans-serif" font-size="13" lengthAdjust="spacingAndGlyphs" textLength="32" x="195" y="256.0356">12:00</text><path d="M231,277.8921 L231,304.8921 L284,304.8921 L284,287.8921 L274,277.8921 L231,277.8921 " fill="#FBFB77" filter="url(#fcgvho3f2eysd)" style="stroke: #A80036; stroke-width: 1.0;"/><path d="M274,277.8921 L274,287.8921 L284,287.8921 L274,277.8921 " fill="#FBFB77" style="stroke: #A80036; stroke-width: 1.0;"/><text fill="#000000" font-family="sans-serif" font-size="13" lengthAdjust="spacingAndGlyphs" textLength="32" x="237" y="297.79">13:00</text><path d="M256,319.6465 L256,346.6465 L343,346.6465 L343,329.6465 L333,319.6465 L256,319.6465 " fill="#FBFB77" filter="url(#fcgvho3f2eysd)" style="stroke: #A80036; stroke-width: 1.0;"/><path d="M333,319.6465 L333,329.6465 L343,329.6465 L333,319.6465 " fill="#FBFB77" style="stroke: #A80036; stroke-width: 1.0;"/><text fill="#000000" font-family="sans-serif" font-size="13" lengthAdjust="spacingAndGlyphs" textLength="66" x="262" y="339.5444">14:00(抽样)</text><path d="M315,361.4009 L315,388.4009 L368,388.4009 L368,371.4009 L358,361.4009 L315,361.4009 " fill="#FBFB77" filter="url(#fcgvho3f2eysd)" style="stroke: #A80036; stroke-width: 1.0;"/><path d="M358,361.4009 L358,371.4009 L368,371.4009 L358,361.4009 " fill="#FBFB77" style="stroke: #A80036; stroke-width: 1.0;"/><text fill="#000000" font-family="sans-serif" font-size="13" lengthAdjust="spacingAndGlyphs" textLength="32" x="321" y="381.2988">15:00</text><path d="M357,403.1553 L357,430.1553 L410,430.1553 L410,413.1553 L400,403.1553 L357,403.1553 " fill="#FBFB77" filter="url(#fcgvho3f2eysd)" style="stroke: #A80036; stroke-width: 1.0;"/><path d="M400,403.1553 L400,413.1553 L410,413.1553 L400,403.1553 " fill="#FBFB77" style="stroke: #A80036; stroke-width: 1.0;"/><text fill="#000000" font-family="sans-serif" font-size="13" lengthAdjust="spacingAndGlyphs" textLength="32" x="363" y="423.0532">16:00</text><path d="M36,444.9097 L36,471.9097 L399,471.9097 L399,454.9097 L389,444.9097 L36,444.9097 " fill="#FBFB77" filter="url(#fcgvho3f2eysd)" style="stroke: #A80036; stroke-width: 1.0;"/><path d="M389,444.9097 L389,454.9097 L399,454.9097 L389,444.9097 " fill="#FBFB77" style="stroke: #A80036; stroke-width: 1.0;"/><text fill="#000000" font-family="sans-serif" font-size="13" lengthAdjust="spacingAndGlyphs" textLength="117" x="152.5" y="464.8076">以上时间为落筒时间</text><polygon fill="#A80036" points="61,500.6641,51,504.6641,61,508.6641,57,504.6641" style="stroke: #A80036; stroke-width: 1.0;"/><line style="stroke: #A80036; stroke-width: 1.0;" x1="55" x2="133" y1="504.6641" y2="504.6641"/><text fill="#000000" font-family="sans-serif" font-size="13" lengthAdjust="spacingAndGlyphs" textLength="26" x="67" y="500.562">追溯</text><polygon fill="#A80036" points="187,532.4185,177,536.4185,187,540.4185,183,536.4185" style="stroke: #A80036; stroke-width: 1.0;"/><line style="stroke: #A80036; stroke-width: 1.0;" x1="181" x2="259" y1="536.4185" y2="536.4185"/><text fill="#000000" font-family="sans-serif" font-size="13" lengthAdjust="spacingAndGlyphs" textLength="26" x="193" y="532.3164">追溯</text><polygon fill="#A80036" points="313,564.1729,303,568.1729,313,572.1729,309,568.1729" style="stroke: #A80036; stroke-width: 1.0;"/><line style="stroke: #A80036; stroke-width: 1.0;" x1="307" x2="385" y1="568.1729" y2="568.1729"/><text fill="#000000" font-family="sans-serif" font-size="13" lengthAdjust="spacingAndGlyphs" textLength="26" x="319" y="564.0708">追溯</text><!--
@startuml
entity A1
entity A2
entity A3
entity B1
entity B2
entity B3
entity C1
entity C2
entity C3
note over of A1
	8:00(抽样)
end note
note over of A2
	9:00
end note
note over of A3
	10:00
end note
note over of B1
	11:00(抽样)
end note
note over of B2
	12:00
end note
note over of B3
	13:00
end note
note over of C1
	14:00(抽样)
end note
note over of C2
	15:00
end note
note over of C3
	16:00
end note
note over A1,C3
	以上时间为落筒时间
end note
A3 ->A1: 追溯
B3 ->B1: 追溯
C3 ->C1: 追溯
@enduml

PlantUML version 1.2018.01(Mon Jan 29 02:08:22 CST 2018)
(GPL source distribution)
Java Runtime: OpenJDK Runtime Environment
JVM: OpenJDK 64-Bit Server VM
Java Version: 1.8.0_152-release-1024-b6
Operating System: Windows 10
OS Version: 10.0
Default Encoding: GBK
Language: zh
Country: CN
--></g></svg>